HIERARCHY
ROOT hip
{
	OFFSET 0.000000 0.000000 0.000000 
	CHANNELS 6 Xposition Yposition Zposition Xrotation Zrotation Yrotation
	JOINT abdomen
	{
		OFFSET 0.000000 3.402643 0.000000 
		CHANNELS 3 Xrotation Zrotation Yrotation
		JOINT chest
		{
			OFFSET 0.000000 8.438565 -0.680529 
			CHANNELS 3 Xrotation Zrotation Yrotation
			JOINT neck
			{
				OFFSET 0.000000 10.207942 -0.272212 
				CHANNELS 3 Xrotation Zrotation Yrotation
				JOINT head
				{
					OFFSET 0.000000 3.130431 0.000000 
					CHANNELS 3 Xrotation Zrotation Yrotation
					End Site
					{
						OFFSET 0.000000 3.130435 0.000000 
					}
				}
			}
			JOINT lCollar
			{
				OFFSET 3.470700 6.669187 -0.816635 
				CHANNELS 3 Yrotation Zrotation Xrotation
				JOINT lShldr
				{
					OFFSET 3.198488 0.000000 0.000000 
					CHANNELS 3 Zrotation Yrotation Xrotation
					JOINT lForeArm
					{
						OFFSET 10.139888 0.000000 0.000000 
						CHANNELS 3 Yrotation Zrotation Xrotation
						JOINT lHand
						{
							OFFSET 8.370511 0.000000 0.000000 
							CHANNELS 3 Zrotation Yrotation Xrotation
							End Site
							{
								OFFSET 4.083176 0.000000 0.000000 
							}
						}
					}
				}
			}
			JOINT rCollar
			{
				OFFSET -3.470700 6.669187 -0.816635 
				CHANNELS 3 Yrotation Zrotation Xrotation
				JOINT rShldr
				{
					OFFSET -3.198488 0.000000 0.000000 
					CHANNELS 3 Zrotation Yrotation Xrotation
					JOINT rForeArm
					{
						OFFSET -10.139888 0.000000 0.000000 
						CHANNELS 3 Yrotation Zrotation Xrotation
						JOINT rHand
						{
							OFFSET -8.370511 0.000000 0.000000 
							CHANNELS 3 Zrotation Yrotation Xrotation
							End Site
							{
								OFFSET -4.083176 0.000000 0.000000 
							}
						}
					}
				}
			}
		}
	}
	JOINT lThigh
	{
		OFFSET 5.308129 -1.633274 1.361059 
		CHANNELS 3 Xrotation Zrotation Yrotation
		JOINT lShin
		{
			OFFSET -2.041588 -20.007561 0.000000 
			CHANNELS 3 Xrotation Zrotation Yrotation
			JOINT lFoot
			{
				OFFSET 0.000000 -19.190928 -1.224953 
				CHANNELS 3 Xrotation Yrotation Zrotation
				End Site
				{
					OFFSET 0.000000 -2.449906 4.627600 
				}
			}
		}
	}
	JOINT rThigh
	{
		OFFSET -5.308129 -1.633274 1.361059 
		CHANNELS 3 Xrotation Zrotation Yrotation
		JOINT rShin
		{
			OFFSET 2.041588 -20.007561 0.000000 
			CHANNELS 3 Xrotation Zrotation Yrotation
			JOINT rFoot
			{
				OFFSET 0.000000 -19.190928 -1.224953 
				CHANNELS 3 Xrotation Yrotation Zrotation
				End Site
				{
					OFFSET 0.000000 -2.449906 4.627600 
				}
			}
		}
	}
}
MOTION
Frames: 10
Frame Time: 0.016667
-0.628310 43.757660 -1.691219 10.904500 1.898710 -10.649800 -14.324400 3.180000 2.565270 12.893400 2.448660 1.243200 15.541500 6.921500 -9.612460 12.911900 6.417810 -4.463750 2.000000 -2.000000 0.000000 -69.577599 -12.077600 -138.593002 105.087997 -0.176718 0.151238 0.106093 -0.126265 171.173996 -2.000000 2.000000 0.000000 74.561897 24.361099 -170.014008 -90.859802 0.212944 0.117180 -0.182853 0.166982 144.582001 -18.679066 1.214422 1.208741 23.751041 2.427897 1.996975 -18.837452 11.399530 5.688404 -14.356009 -4.263669 13.720893 6.682352 -2.612977 -0.583784 -12.577928 -12.141518 -4.030391 
-0.628879 43.772564 -1.718315 10.954200 2.032620 -10.036300 -14.272700 3.290230 2.749420 12.992100 2.265290 1.359650 15.319900 7.436660 -10.136600 12.905500 6.591670 -4.730840 2.000000 -2.000000 0.000000 -69.771797 -12.867100 -137.761002 104.805000 -0.177417 0.151425 0.106330 -0.126450 171.067001 -2.000000 2.000000 0.000000 -106.391998 153.994003 8.066580 -88.144997 0.219275 0.136653 -0.182853 0.166982 144.582001 -18.732321 0.966965 0.984279 23.485979 2.417124 1.970118 -18.590498 11.227245 5.567647 -14.335757 -4.503364 13.151196 6.692585 -2.638183 -0.565089 -12.644563 -12.139762 -4.049148 
-0.629449 43.787476 -1.745412 11.004000 2.156900 -9.424370 -14.220600 3.403890 2.942760 13.090700 2.091510 1.483970 15.099900 7.943300 -10.676100 12.889400 6.765740 -5.008920 2.000000 -2.000000 0.000000 -69.985603 -13.656600 -136.919998 104.522003 -0.178118 0.151608 0.106567 -0.126635 170.959000 -2.000000 2.000000 0.000000 -107.425003 152.378006 6.088090 -85.449699 0.225695 0.136294 -0.182853 0.166982 144.582001 -18.714022 0.731382 0.744586 23.075382 2.397829 1.964159 -18.259558 11.037962 5.437929 -14.440919 -4.650838 12.580556 7.006692 -2.774583 -0.575935 -12.854010 -12.153853 -4.029522 
-0.648501 43.798786 -1.795873 11.111900 2.213610 -8.618030 -14.121100 3.596390 3.098300 13.179700 1.849810 1.606380 14.688400 8.686090 -11.273100 12.885600 7.055400 -5.286380 2.000000 -2.000000 0.000000 -70.736397 -14.719400 -135.970993 104.101997 -0.179158 0.151874 0.106913 -0.126904 170.802994 -2.000000 2.000000 0.000000 -108.573997 150.899002 4.499840 -82.656799 0.232323 0.135603 -0.184167 0.167244 144.104004 -18.839497 0.565999 0.468646 22.722719 2.383742 1.948555 -17.846418 10.737145 5.214344 -14.463766 -4.835731 11.820692 7.051127 -2.768299 -0.575242 -12.900553 -12.126003 -4.086855 
-0.667552 43.810089 -1.846336 11.229600 2.270190 -7.801320 -14.011300 3.783040 3.266820 13.278300 1.617730 1.727090 14.257600 9.423960 -11.880400 12.882300 7.354730 -5.572150 2.000000 -2.000000 0.000000 -71.516502 -15.772500 -135.003006 103.681999 -0.180200 0.152132 0.107259 -0.127171 170.647003 -2.000000 2.000000 0.000000 -109.773003 149.449997 2.857830 -79.873596 0.238887 0.134594 -0.185483 0.167495 143.625000 -18.893438 0.410056 0.206711 22.223621 2.353801 1.913302 -17.369226 10.416663 5.007605 -14.507118 -5.010837 11.048572 7.134486 -2.771778 -0.593522 -12.968178 -12.071259 -4.108705 
-0.686864 43.818321 -1.873241 11.396600 2.364600 -7.208650 -13.932700 3.899950 3.331200 13.386400 1.443700 1.791110 13.874700 9.900010 -12.277900 12.847000 7.538930 -5.754010 2.000000 -2.000000 0.000000 -72.287498 -16.445499 -134.494003 103.497002 -0.180661 0.152243 0.108150 -0.127851 170.246002 -2.000000 2.000000 0.000000 -110.778000 148.882996 2.488150 -78.584503 0.241909 0.134019 -0.187098 0.167787 143.039001 -19.043470 0.282289 0.074989 21.920042 2.339265 1.896925 -17.045444 10.083723 4.837547 -14.642319 -5.160998 10.516846 7.265303 -2.760101 -0.610508 -13.139356 -11.981840 -4.160988 
-0.706173 43.826534 -1.900147 11.563400 2.449320 -6.627550 -13.863700 4.007320 3.397720 13.494400 1.269590 1.854480 13.481500 10.368300 -12.686700 12.802200 7.733050 -5.935970 2.000000 -2.000000 0.000000 -73.068100 -17.098900 -133.975006 103.310997 -0.181123 0.152353 0.109024 -0.128509 169.856003 -2.000000 2.000000 0.000000 -111.802002 148.315002 2.098930 -77.305199 0.244894 0.133381 -0.188742 0.168067 142.442993 -19.095850 0.153627 -0.072884 21.442629 2.292663 1.868473 -16.648834 9.787271 4.692622 -14.777774 -5.304992 9.975379 7.394655 -2.749975 -0.618332 -13.339837 -11.914663 -4.226315 
-0.750965 43.838230 -1.933657 11.722500 2.734810 -6.092630 -13.754700 4.067740 3.477760 13.553300 1.153440 1.909130 13.051000 10.858000 -13.127600 12.776500 7.897800 -6.118650 2.000000 -2.000000 0.000000 -74.161499 -17.859900 -133.514999 103.183998 -0.181439 0.152428 0.110322 -0.129469 169.279007 -2.000000 2.000000 0.000000 -112.992996 148.061005 2.021430 -76.983002 0.245644 0.133210 -0.191796 0.168540 141.339996 -19.095179 -0.141718 -0.168204 20.838493 2.245319 1.862242 -16.218702 9.585093 4.577842 -15.129690 -5.574872 9.564563 7.908382 -2.825464 -0.634148 -13.641799 -11.812185 -4.232189 
-0.795757 43.849926 -1.967167 11.882000 3.019940 -5.565940 -13.645600 4.128170 3.557910 13.602400 1.037240 1.963360 12.620500 11.338600 -13.587800 12.740900 8.062800 -6.304190 2.000000 -2.000000 0.000000 -75.264503 -18.620800 -133.035004 103.056999 -0.181755 0.152501 0.111628 -0.130415 168.703003 -2.000000 2.000000 0.000000 -114.194000 147.817001 1.924370 -76.650902 0.246415 0.133030 -0.194858 0.168954 140.235992 -19.137592 -0.449529 -0.249212 20.347683 2.226074 1.819980 -15.854119 9.374910 4.456984 -15.283558 -5.955964 9.159776 7.998983 -2.716793 -0.656907 -13.736687 -11.654597 -4.325388 
-0.841134 43.861111 -2.002497 11.961700 3.152820 -5.240550 -13.546900 4.191150 3.617160 13.612300 0.950012 2.003450 12.191100 11.694400 -13.916900 12.655200 8.190370 -6.434390 2.000000 -2.000000 0.000000 -76.221703 -19.440800 -132.858002 102.880997 -0.182193 0.152602 0.112989 -0.131379 168.108002 -2.000000 2.000000 0.000000 -115.003998 147.669006 1.387620 -77.051300 0.245485 0.133247 -0.195374 0.169018 140.050995 -19.085236 -0.577463 -0.375738 19.887659 2.201166 1.795770 -15.561549 9.259325 4.363360 -15.450260 -6.087861 8.921290 8.231860 -2.703715 -0.701271 -13.798570 -11.564990 -4.350605 
